<svg width="20" height="18" viewBox="0 0 20 18" fill="#000" xmlns="http://www.w3.org/2000/svg">
<path d="M4.08881 3.53287L3.81268 3.24721V14.0837L4.08881 13.7981C4.1776 13.7093 4.28299 13.6389 4.39899 13.5908C4.51499 13.5428 4.63932 13.518 4.76487 13.518C4.89043 13.518 5.01476 13.5428 5.13075 13.5908C5.24675 13.6389 5.35215 13.7093 5.44093 13.7981C5.52971 13.8869 5.60014 13.9923 5.64819 14.1083C5.69623 14.2243 5.72096 14.3486 5.72096 14.4741C5.72096 14.5997 5.69623 14.724 5.64819 14.84C5.60014 14.956 5.52971 15.0614 5.44093 15.1502L3.53654 17.0546C3.44598 17.1413 3.3392 17.2092 3.22232 17.2546C3.10834 17.3049 2.9851 17.3309 2.86048 17.3309C2.73587 17.3309 2.61263 17.3049 2.49865 17.2546C2.38176 17.2092 2.27498 17.1413 2.18442 17.0546L0.280033 15.1502C0.100731 14.9709 0 14.7277 0 14.4741C0 14.2206 0.100731 13.9774 0.280033 13.7981C0.459334 13.6188 0.70252 13.518 0.956092 13.518C1.20966 13.518 1.45285 13.6188 1.63215 13.7981L1.90829 14.0837V3.24721L1.63215 3.53287C1.45285 3.71217 1.20966 3.8129 0.956092 3.8129C0.70252 3.8129 0.459334 3.71217 0.280033 3.53287C0.100731 3.35356 0 3.11038 0 2.85681C0 2.60324 0.100731 2.36005 0.280033 2.18075L2.18442 0.276359C2.27498 0.189671 2.38176 0.121716 2.49865 0.0763971C2.61263 0.0260211 2.73587 0 2.86048 0C2.9851 0 3.10834 0.0260211 3.22232 0.0763971C3.3392 0.121716 3.44598 0.189671 3.53654 0.276359L5.44093 2.18075C5.52971 2.26953 5.60014 2.37493 5.64819 2.49093C5.69623 2.60693 5.72096 2.73125 5.72096 2.85681C5.72096 2.98236 5.69623 3.10669 5.64819 3.22269C5.60014 3.33869 5.52971 3.44409 5.44093 3.53287C5.35215 3.62165 5.24675 3.69207 5.13075 3.74012C5.01476 3.78817 4.89043 3.8129 4.76487 3.8129C4.63932 3.8129 4.51499 3.78817 4.39899 3.74012C4.28299 3.69207 4.1776 3.62165 4.08881 3.53287Z" fill="#3D3D4D"/>
<path d="M10.5259 13.4741H19.0478C19.3003 13.4741 19.5425 13.5745 19.7211 13.753C19.8997 13.9316 20 14.1738 20 14.4263C20 14.6789 19.8997 14.9211 19.7211 15.0996C19.5425 15.2782 19.3003 15.3785 19.0478 15.3785H10.5259C10.2733 15.3785 10.0311 15.2782 9.85255 15.0996C9.67398 14.9211 9.57366 14.6789 9.57366 14.4263C9.57366 14.1738 9.67398 13.9316 9.85255 13.753C10.0311 13.5745 10.2733 13.4741 10.5259 13.4741Z" fill="#3D3D4D"/>
<path d="M10.5259 7.47412H17.0479C17.3004 7.47412 17.5426 7.57444 17.7212 7.75301C17.8998 7.93158 18.0001 8.17378 18.0001 8.42632C18.0001 8.67885 17.8998 8.92105 17.7212 9.09962C17.5426 9.27819 17.3004 9.37851 17.0479 9.37851H10.5259C10.2734 9.37851 10.0312 9.27819 9.85262 9.09962C9.67405 8.92105 9.57373 8.67885 9.57373 8.42632C9.57373 8.17378 9.67405 7.93158 9.85262 7.75301C10.0312 7.57444 10.2734 7.47412 10.5259 7.47412Z" fill="#3D3D4D"/>
<path d="M10.5259 1.47412H15.0479C15.3004 1.47412 15.5426 1.57444 15.7212 1.75301C15.8998 1.93158 16.0001 2.17378 16.0001 2.42632C16.0001 2.67885 15.8998 2.92105 15.7212 3.09962C15.5426 3.27819 15.3004 3.37851 15.0479 3.37851H10.5259C10.2734 3.37851 10.0312 3.27819 9.85262 3.09962C9.67405 2.92105 9.57373 2.67885 9.57373 2.42632C9.57373 2.17378 9.67405 1.93158 9.85262 1.75301C10.0312 1.57444 10.2734 1.47412 10.5259 1.47412Z" fill="#3D3D4D"/>
</svg>
